# Blender v2.76 (sub 0) OBJ File: 'DrJeckyllMrHyde_Sombrero.blend'
# www.blender.org
mtllib Sombrero.mtl
o Circle.001
v 0.016175 0.258536 -0.069864
v -0.018757 0.258536 -0.060504
v -0.044330 0.258536 -0.034932
v -0.053690 0.258536 0.000000
v -0.044330 0.258536 0.034932
v -0.018757 0.258536 0.060504
v 0.016175 0.258536 0.069864
v 0.051107 0.258536 0.060504
v 0.076679 0.258536 0.034932
v 0.086039 0.258536 0.000000
v 0.076679 0.258536 -0.034932
v 0.051107 0.258536 -0.060504
v 0.016175 0.122105 -0.064865
v -0.016258 0.122105 -0.056175
v -0.040000 0.118017 -0.032432
v -0.048691 0.118017 0.000000
v -0.040000 0.118017 0.032433
v -0.016258 0.122105 0.056175
v 0.016175 0.122105 0.064865
v 0.048607 0.122105 0.056175
v 0.072350 0.118017 0.032433
v 0.081040 0.118017 0.000000
v 0.072350 0.118017 -0.032432
v 0.048607 0.122105 -0.056175
v 0.016175 0.122254 -0.112899
v -0.040275 0.122254 -0.097773
v -0.081599 0.118166 -0.056449
v -0.096725 0.118166 0.000000
v -0.081599 0.118166 0.056450
v -0.040275 0.122254 0.097774
v 0.016175 0.122254 0.112899
v 0.072624 0.122254 0.097774
v 0.113948 0.118166 0.056450
v 0.129074 0.118166 0.000000
v 0.113948 0.118166 -0.056449
v 0.072624 0.122254 -0.097773
v 0.016175 0.119471 -0.112899
v -0.040275 0.119471 -0.097773
v -0.081599 0.115384 -0.056449
v -0.096725 0.115384 0.000000
v -0.081599 0.115384 0.056450
v -0.040275 0.119471 0.097774
v 0.016175 0.119471 0.112899
v 0.072624 0.119471 0.097774
v 0.113948 0.115384 0.056450
v 0.129074 0.115384 0.000000
v 0.113948 0.115384 -0.056449
v 0.072624 0.119471 -0.097773
v 0.016175 0.115533 -0.062257
v -0.014954 0.115533 -0.053916
v -0.037742 0.115533 -0.031129
v -0.046083 0.115533 0.000000
v -0.037742 0.115533 0.031129
v -0.014954 0.119621 0.053917
v 0.016175 0.119621 0.062258
v 0.047303 0.119621 0.053917
v 0.070091 0.115533 0.031129
v 0.078432 0.115533 0.000000
v 0.070091 0.115533 -0.031129
v 0.047303 0.115533 -0.053916
v 0.016175 0.199277 -0.055291
v -0.011471 0.199277 -0.047883
v -0.031709 0.199277 -0.027645
v -0.039116 0.199277 0.000000
v -0.031709 0.199277 0.027646
v -0.011471 0.199277 0.047883
v 0.016175 0.199277 0.055291
v 0.043820 0.199277 0.047883
v 0.064058 0.199277 0.027646
v 0.071465 0.199277 0.000000
v 0.064058 0.199277 -0.027645
v 0.043820 0.199277 -0.047883
v -0.009002 0.199277 -0.013492
v 0.001117 0.199277 0.024273
v 0.031232 0.199277 -0.024272
v 0.041351 0.199277 0.013492
v -0.002851 0.258536 -0.030670
v -0.015637 0.258536 0.017048
v 0.047987 0.258536 -0.017048
v 0.035201 0.258536 0.030670
v -0.016557 0.210757 0.056693
v -0.015758 0.165795 0.055308
v 0.016175 0.165795 0.063864
v 0.016175 0.210757 0.065464
v -0.040519 0.210757 -0.032732
v -0.039133 0.165795 -0.031932
v -0.047690 0.165795 0.000000
v -0.049289 0.210757 0.000000
v 0.081638 0.210757 0.000000
v 0.080039 0.165795 0.000000
v 0.071483 0.165795 -0.031932
v 0.072868 0.210757 -0.032732
v 0.048107 0.165795 0.055308
v 0.048906 0.210757 0.056694
v -0.039133 0.165795 0.031932
v -0.040519 0.210757 0.032732
v 0.048107 0.165795 -0.055308
v 0.048907 0.210757 -0.056693
v 0.016175 0.210757 -0.065464
v 0.016175 0.165795 -0.063864
v -0.015758 0.165795 -0.055308
v -0.016557 0.210757 -0.056693
v 0.071483 0.165795 0.031932
v 0.072868 0.210757 0.032732
vt 0.206701 0.711217
vt 0.144274 0.707495
vt 0.149537 0.626162
vt 0.210952 0.629817
vt 0.769793 0.697291
vt 0.708811 0.702993
vt 0.702104 0.614781
vt 0.763261 0.610118
vt 0.458364 0.715989
vt 0.395324 0.716453
vt 0.395564 0.626854
vt 0.457218 0.626534
vt 0.269417 0.713919
vt 0.272252 0.632568
vt 0.082313 0.703012
vt 0.021222 0.698041
vt 0.026822 0.610118
vt 0.088575 0.614387
vt 0.521379 0.714396
vt 0.518852 0.632717
vt 0.646813 0.707699
vt 0.584231 0.711646
vt 0.580287 0.630280
vt 0.641495 0.626838
vt 0.332326 0.715882
vt 0.333825 0.626240
vt 0.098798 0.589183
vt 0.023639 0.594229
vt 0.000174 0.483564
vt 0.105399 0.498298
vt 0.636124 0.599383
vt 0.554690 0.583806
vt 0.555527 0.499058
vt 0.633294 0.495928
vt 0.799815 0.577465
vt 0.719232 0.587818
vt 0.714047 0.489977
vt 0.797151 0.484990
vt 0.409994 0.595539
vt 0.335163 0.601589
vt 0.335262 0.511375
vt 0.408929 0.506882
vt 0.177586 0.609769
vt 0.186633 0.508052
vt 0.878054 0.570478
vt 0.884178 0.479377
vt 0.483076 0.589472
vt 0.482001 0.503274
vt 0.258172 0.606330
vt 0.261581 0.511523
vt 0.953144 0.579880
vt 0.993940 0.479600
vt 0.000995 0.477969
vt 0.105842 0.493845
vt 0.555197 0.495183
vt 0.632910 0.491869
vt 0.713736 0.485731
vt 0.797013 0.480617
vt 0.335262 0.507585
vt 0.408838 0.503107
vt 0.186840 0.504048
vt 0.884166 0.474643
vt 0.481779 0.499483
vt 0.261652 0.507676
vt 0.993940 0.473888
vt 0.266326 0.418680
vt 0.336222 0.415368
vt 0.059271 0.378916
vt 0.129755 0.398423
vt 0.553299 0.396102
vt 0.629889 0.388211
vt 0.708498 0.378179
vt 0.790840 0.365779
vt 0.407515 0.409878
vt 0.198128 0.418995
vt 0.874011 0.373614
vt 0.479811 0.403467
vt 0.948992 0.355560
vt 0.585824 0.140704
vt 0.639498 0.168293
vt 0.568060 0.299889
vt 0.520392 0.275388
vt 0.064137 0.000174
vt 0.123804 0.002140
vt 0.114335 0.151495
vt 0.062352 0.155833
vt 0.363789 0.047634
vt 0.421426 0.065521
vt 0.371571 0.214778
vt 0.320383 0.198893
vt 0.246477 0.019357
vt 0.305436 0.032237
vt 0.268561 0.185219
vt 0.216200 0.173780
vt 0.534136 0.108627
vt 0.471668 0.253061
vt 0.691874 0.198274
vt 0.746932 0.224144
vt 0.659842 0.355211
vt 0.614575 0.326515
vt 0.187020 0.009019
vt 0.163396 0.164599
vt 0.478244 0.085864
vt 0.422031 0.232845
vt 0.199239 0.206895
vt 0.133376 0.206507
vt 0.208693 0.260885
vt 0.146801 0.283960
vt 0.189312 0.312304
vt 0.146882 0.346789
vt 0.061496 0.217856
vt 0.073673 0.295628
vt 0.093077 0.355212
vt 0.000174 0.239647
vt 0.019999 0.189269
vt 0.008397 0.293225
vt 0.042364 0.335562
vt 0.781115 0.218885
vt 0.854019 0.191094
vt 0.907388 0.252720
vt 0.839718 0.252720
vt 0.939306 0.141853
vt 0.965991 0.218885
vt 0.999826 0.092612
vt 0.999826 0.160282
vt 0.747280 0.160282
vt 0.807800 0.111041
vt 0.893087 0.061800
vt 0.965991 0.034009
vt 0.747280 0.092612
vt 0.781115 0.034009
vt 0.839718 0.000174
vt 0.907388 0.000174
vt 0.394433 0.892152
vt 0.328156 0.891203
vt 0.330373 0.801551
vt 0.394928 0.802323
vt 0.726716 0.876295
vt 0.660196 0.882628
vt 0.652936 0.792901
vt 0.716697 0.787068
vt 0.593701 0.887151
vt 0.527234 0.890167
vt 0.524166 0.800210
vt 0.588678 0.797240
vt 0.130420 0.880555
vt 0.065077 0.874151
vt 0.074801 0.786683
vt 0.137969 0.792150
vt 0.262021 0.888965
vt 0.265946 0.799563
vt 0.460803 0.891814
vt 0.459550 0.801887
vt 0.000174 0.865861
vt 0.012846 0.779871
vt 0.196097 0.885438
vt 0.201777 0.796434
vt 0.793254 0.867496
vt 0.779488 0.779520
vn 0.000000 -0.006300 1.000000
vn -0.500300 -0.006600 0.865800
vn -0.352600 0.769600 0.532200
vn 0.000000 0.778500 0.627600
vn -1.000000 -0.007300 0.000000
vn -0.866100 -0.007100 -0.499700
vn -0.556400 0.784000 -0.275100
vn -0.628400 0.777900 0.000000
vn 0.866100 -0.007100 -0.499700
vn 1.000000 -0.007300 0.000000
vn 0.628400 0.777900 0.000000
vn 0.556400 0.784000 -0.275100
vn 0.500300 -0.006600 0.865800
vn 0.352600 0.769600 0.532200
vn -0.866100 -0.007100 0.499700
vn -0.556400 0.784000 0.275100
vn 0.500300 -0.006600 -0.865800
vn 0.352600 0.769600 -0.532200
vn -0.500300 -0.006600 -0.865800
vn 0.000000 -0.006300 -1.000000
vn 0.000000 0.778500 -0.627600
vn -0.352600 0.769600 -0.532200
vn 0.866100 -0.007100 0.499700
vn 0.556400 0.784000 0.275100
vn -0.756300 0.654200 0.000000
vn -0.675500 0.641500 0.363400
vn 0.675500 0.641500 -0.363400
vn 0.393700 0.665500 -0.634100
vn 0.000000 0.654200 -0.756300
vn -0.393700 0.665500 -0.634100
vn 0.393700 0.665500 0.634100
vn 0.675500 0.641500 0.363400
vn -0.393700 0.665500 0.634100
vn -0.675500 0.641500 -0.363400
vn 0.756300 0.654200 0.000000
vn 0.000000 0.654200 0.756300
vn -0.756300 -0.654200 0.000000
vn -0.633800 -0.665500 0.394000
vn 0.645700 -0.657600 -0.388200
vn 0.379800 -0.623800 -0.683100
vn 0.000000 -0.627800 -0.778400
vn -0.379800 -0.623800 -0.683100
vn 0.363100 -0.641400 0.675800
vn 0.633800 -0.665500 0.394000
vn -0.363100 -0.641400 0.675800
vn -0.645700 -0.657600 -0.388200
vn 0.756300 -0.654200 0.000000
vn 0.000000 -0.654200 0.756300
vn 0.000000 -0.795400 -0.606000
vn -0.342500 -0.787100 -0.512900
vn 0.607700 -0.794200 0.000000
vn 0.539000 -0.799800 -0.264000
vn -0.530700 -0.798900 0.282900
vn -0.306100 -0.817100 0.488500
vn 0.000000 -0.822200 0.569100
vn 0.306100 -0.817100 0.488500
vn -0.539000 -0.799800 -0.264000
vn 0.342500 -0.787100 -0.512900
vn 0.530700 -0.798900 0.282900
vn -0.607700 -0.794200 0.000000
vn 0.000000 -0.685300 -0.728200
vn -0.365900 -0.685100 -0.629800
vn 0.729700 -0.683700 0.000000
vn 0.632800 -0.683900 -0.363000
vn -0.631900 -0.683700 0.364800
vn -0.364800 -0.683700 0.631900
vn 0.000000 -0.683700 0.729700
vn 0.364800 -0.683700 0.631900
vn -0.632800 -0.683900 -0.363000
vn 0.365900 -0.685100 -0.629800
vn 0.631900 -0.683700 0.364800
vn -0.729700 -0.683700 0.000000
vn 0.000000 -1.000000 0.000000
vn -0.680400 0.618600 -0.392800
vn 0.000000 1.000000 0.000000
vn 0.000000 0.618600 -0.785700
vn -0.392800 0.618600 -0.680400
vn 0.392800 0.618600 -0.680400
vn 0.785700 0.618600 0.000000
vn 0.680400 0.618600 -0.392800
vn -0.785700 0.618600 0.000000
vn 0.680400 0.618600 0.392800
vn -0.680400 0.618600 0.392800
vn -0.392800 0.618600 0.680400
vn 0.000000 0.618600 0.785700
vn 0.392800 0.618600 0.680400
vn 0.864200 -0.063900 0.498900
vn 0.997900 -0.063900 0.000000
vn -0.498900 -0.063900 -0.864200
vn -0.864200 -0.063900 -0.498900
vn 0.498900 -0.063900 -0.864200
vn 0.000000 -0.063900 -0.997900
vn -0.864200 -0.063900 0.498900
vn -0.498900 -0.063900 0.864200
vn 0.498900 -0.063900 0.864200
vn 0.864200 -0.063900 -0.498900
vn -0.997900 -0.063900 0.000000
vn 0.000000 -0.063900 0.997900
usemtl None
s 1
f 83/1/1 82/2/2 18/3/3 19/4/4
f 87/5/5 86/6/6 15/7/7 16/8/8
f 91/9/9 90/10/10 22/11/11 23/12/12
f 93/13/13 83/1/1 19/4/4 20/14/14
f 95/15/15 87/16/5 16/17/8 17/18/16
f 97/19/17 91/9/9 23/12/12 24/20/18
f 101/21/19 100/22/20 13/23/21 14/24/22
f 103/25/23 93/13/13 20/14/14 21/26/24
f 82/2/2 95/15/15 17/18/16 18/3/3
f 100/22/20 97/19/17 24/20/18 13/23/21
f 86/6/6 101/21/19 14/24/22 15/7/7
f 90/10/10 103/25/23 21/26/24 22/11/11
f 17/27/16 16/28/8 28/29/25 29/30/26
f 24/31/18 23/32/12 35/33/27 36/34/28
f 14/35/22 13/36/21 25/37/29 26/38/30
f 21/39/24 20/40/14 32/41/31 33/42/32
f 18/43/3 17/27/16 29/30/26 30/44/33
f 13/36/21 24/31/18 36/34/28 25/37/29
f 15/45/7 14/35/22 26/38/30 27/46/34
f 22/47/11 21/39/24 33/42/32 34/48/35
f 19/49/4 18/43/3 30/44/33 31/50/36
f 16/51/8 15/45/7 27/46/34 28/52/25
f 23/32/12 22/47/11 34/48/35 35/33/27
f 20/40/14 19/49/4 31/50/36 32/41/31
f 29/30/26 28/29/25 40/53/37 41/54/38
f 36/34/28 35/33/27 47/55/39 48/56/40
f 26/38/30 25/37/29 37/57/41 38/58/42
f 33/42/32 32/41/31 44/59/43 45/60/44
f 30/44/33 29/30/26 41/54/38 42/61/45
f 25/37/29 36/34/28 48/56/40 37/57/41
f 27/46/34 26/38/30 38/58/42 39/62/46
f 34/48/35 33/42/32 45/60/44 46/63/47
f 31/50/36 30/44/33 42/61/45 43/64/48
f 28/52/25 27/46/34 39/62/46 40/65/37
f 35/33/27 34/48/35 46/63/47 47/55/39
f 32/41/31 31/50/36 43/64/48 44/59/43
f 44/59/43 43/64/48 55/66/49 56/67/50
f 41/54/38 40/53/37 52/68/51 53/69/52
f 48/56/40 47/55/39 59/70/53 60/71/54
f 38/58/42 37/57/41 49/72/55 50/73/56
f 45/60/44 44/59/43 56/67/50 57/74/57
f 42/61/45 41/54/38 53/69/52 54/75/58
f 37/57/41 48/56/40 60/71/54 49/72/55
f 39/62/46 38/58/42 50/73/56 51/76/59
f 46/63/47 45/60/44 57/74/57 58/77/60
f 43/64/48 42/61/45 54/75/58 55/66/49
f 40/65/37 39/62/46 51/76/59 52/78/51
f 47/55/39 46/63/47 58/77/60 59/70/53
f 56/79/50 55/80/49 67/81/61 68/82/62
f 53/83/52 52/84/51 64/85/63 65/86/64
f 60/87/54 59/88/53 71/89/65 72/90/66
f 50/91/56 49/92/55 61/93/67 62/94/68
f 57/95/57 56/79/50 68/82/62 69/96/69
f 54/97/58 53/98/52 65/99/64 66/100/70
f 49/92/55 60/87/54 72/90/66 61/93/67
f 51/101/59 50/91/56 62/94/68 63/102/71
f 58/103/60 57/95/57 69/96/69 70/104/72
f 55/80/49 54/97/58 66/100/70 67/81/61
f 52/84/51 51/101/59 63/102/71 64/85/63
f 59/88/53 58/103/60 70/104/72 71/89/65
f 63/102/71 62/105/68 73/106/73 64/85/63
f 62/105/68 61/107/67 75/108/73 73/106/73
f 61/107/67 72/109/66 71/110/65 75/108/73
f 64/85/63 73/106/73 74/111/73 65/86/64
f 73/106/73 75/108/73 76/112/73 74/111/73
f 75/108/73 71/110/65 70/113/72 76/112/73
f 65/86/64 74/111/73 67/114/61 66/115/70
f 74/111/73 76/112/73 68/116/62 67/114/61
f 76/112/73 70/113/72 69/117/69 68/116/62
f 3/118/74 77/119/75 1/120/76 2/121/77
f 77/119/75 79/122/75 12/123/78 1/120/76
f 79/122/75 10/124/79 11/125/80 12/123/78
f 4/126/81 78/127/75 77/119/75 3/118/74
f 78/127/75 80/128/75 79/122/75 77/119/75
f 80/128/75 9/129/82 10/124/79 79/122/75
f 5/130/83 6/131/84 78/127/75 4/126/81
f 6/131/84 7/132/85 80/128/75 78/127/75
f 7/132/85 8/133/86 9/129/82 80/128/75
f 10/134/79 9/135/82 104/136/87 89/137/88
f 89/137/88 104/136/87 103/25/23 90/10/10
f 3/138/74 2/139/77 102/140/89 85/141/90
f 85/141/90 102/140/89 101/21/19 86/6/6
f 1/142/76 12/143/78 98/144/91 99/145/92
f 99/145/92 98/144/91 97/19/17 100/22/20
f 6/146/84 5/147/83 96/148/93 81/149/94
f 81/149/94 96/148/93 95/15/15 82/2/2
f 9/135/82 8/150/86 94/151/95 104/136/87
f 104/136/87 94/151/95 93/13/13 103/25/23
f 2/139/77 1/142/76 99/145/92 102/140/89
f 102/140/89 99/145/92 100/22/20 101/21/19
f 12/143/78 11/152/80 92/153/96 98/144/91
f 98/144/91 92/153/96 91/9/9 97/19/17
f 5/147/83 4/154/81 88/155/97 96/148/93
f 96/148/93 88/155/97 87/16/5 95/15/15
f 8/150/86 7/156/85 84/157/98 94/151/95
f 94/151/95 84/157/98 83/1/1 93/13/13
f 11/152/80 10/134/79 89/137/88 92/153/96
f 92/153/96 89/137/88 90/10/10 91/9/9
f 4/158/81 3/138/74 85/141/90 88/159/97
f 88/159/97 85/141/90 86/6/6 87/5/5
f 7/156/85 6/146/84 81/149/94 84/157/98
f 84/157/98 81/149/94 82/2/2 83/1/1
